<?xml version="1.0" encoding="UTF-8" standalone="no"?>
<!-- Created with Inkscape (http://www.inkscape.org/) -->

<svg
   xmlns:dc="http://purl.org/dc/elements/1.1/"
   xmlns:cc="http://creativecommons.org/ns#"
   xmlns:rdf="http://www.w3.org/1999/02/22-rdf-syntax-ns#"
   xmlns:svg="http://www.w3.org/2000/svg"
   xmlns="http://www.w3.org/2000/svg"
   xmlns:sodipodi="http://sodipodi.sourceforge.net/DTD/sodipodi-0.dtd"
   xmlns:inkscape="http://www.inkscape.org/namespaces/inkscape"
   width="171.33331mm"
   height="171.27377mm"
   viewBox="0 0 171.33333 171.27376"
   version="1.1"
   id="svg8"
   inkscape:version="0.92.1 r15371"
   sodipodi:docname="restq.svg">
  <defs
     id="defs2" />
  <sodipodi:namedview
     id="base"
     pagecolor="#ffffff"
     bordercolor="#666666"
     borderopacity="1.0"
     inkscape:pageopacity="0.0"
     inkscape:pageshadow="2"
     inkscape:zoom="0.7"
     inkscape:cx="498.00255"
     inkscape:cy="321.89651"
     inkscape:document-units="mm"
     inkscape:current-layer="layer1"
     showgrid="false"
     inkscape:window-width="1333"
     inkscape:window-height="669"
     inkscape:window-x="2197"
     inkscape:window-y="1338"
     inkscape:window-maximized="0"
     fit-margin-top="3"
     fit-margin-left="1"
     fit-margin-right="1"
     fit-margin-bottom="3"
     units="mm" />
  <metadata
     id="metadata5">
    <rdf:RDF>
      <cc:Work
         rdf:about="">
        <dc:format>image/svg+xml</dc:format>
        <dc:type
           rdf:resource="http://purl.org/dc/dcmitype/StillImage" />
        <dc:title></dc:title>
      </cc:Work>
    </rdf:RDF>
  </metadata>
  <g
     inkscape:label="Layer 1"
     inkscape:groupmode="layer"
     id="layer1"
     transform="translate(-73.36652,72.831567)">
    <path
       style="color:#000000;font-style:normal;font-variant:normal;font-weight:normal;font-stretch:normal;font-size:medium;line-height:normal;font-family:sans-serif;font-variant-ligatures:normal;font-variant-position:normal;font-variant-caps:normal;font-variant-numeric:normal;font-variant-alternates:normal;font-feature-settings:normal;text-indent:0;text-align:start;text-decoration:none;text-decoration-line:none;text-decoration-style:solid;text-decoration-color:#000000;letter-spacing:normal;word-spacing:normal;text-transform:none;writing-mode:lr-tb;direction:ltr;text-orientation:mixed;dominant-baseline:auto;baseline-shift:baseline;text-anchor:start;white-space:normal;shape-padding:0;clip-rule:nonzero;display:inline;overflow:visible;visibility:visible;opacity:1;isolation:auto;mix-blend-mode:normal;color-interpolation:sRGB;color-interpolation-filters:linearRGB;solid-color:#000000;solid-opacity:1;vector-effect:none;fill:#800000;fill-opacity:1;fill-rule:nonzero;stroke:none;stroke-width:5;stroke-linecap:butt;stroke-linejoin:miter;stroke-miterlimit:4;stroke-dasharray:15.00000014, 5.00000005;stroke-dashoffset:0;stroke-opacity:1;color-rendering:auto;image-rendering:auto;shape-rendering:auto;text-rendering:auto;enable-background:accumulate"
       d="m 157.67568,-69.831567 -0.88873,0.04181 -6.22113,0.277258 -0.88873,0.03792 -0.88114,0.125231 -6.20592,0.86975 -0.89634,0.133009 -0.88114,0.208887 -6.12997,1.49641 -0.89252,0.216489 -0.85456,0.296237 -6.02362,2.12688 -0.86596,0.30384 -0.84315,0.391191 -5.87549,2.75735 -0.84317,0.391191 -0.78999,0.474749 -5.678,3.384029 -0.80138,0.482352 -0.73682,0.546912 -5.29819,3.957504 -0.75201,0.554516 -0.68366,0.63047 -2.72695,2.480093 24.80474,27.117718 2.03572,-1.861018 3.8132,-2.844701 4.07526,-2.434512 4.21958,-1.97497 4.34871,-1.526803 4.20818,-1.01785 4.52721,-0.645657 4.48925,-0.205095 4.28034,0.227866 4.55381,0.664656 4.24236,1.048243 4.23477,1.504013 3.97271,1.830643 3.88155,2.293998 3.73343,2.715561 3.38023,3.038401 3.08778,3.376426 2.51807,3.376426 0.0494,-0.03034 2.71556,4.5538088 1.94839,4.1208292 1.52299,4.31832034 1.07864,4.42466926 0.63426,4.515831 0.1861,4.3828804 -0.23168,4.401898 -0.64945,4.424669 -1.09003,4.3373 -1.46604,4.158826 -1.84581,3.980295 -2.30918,3.92713 -2.70798,3.695453 -0.47856,0.535517 2.25602,-18.11645 a 11.025472,11.025472 0 0 0 -10.82431,-12.544792 11.025472,11.025472 0 0 0 -11.05217,9.817816 l -7.03391,56.457289 a 11.025472,11.025472 0 0 0 11.28387,12.38907 L 233.11917,89.035 h 0.12912 a 11.025472,11.025472 0 0 0 -0.5735,-22.035996 h -0.11395 -0.11764 l -1.64834,0.03033 a 11.025472,11.025472 0 0 0 -0.7748,0.05698 l -9.95075,0.307632 1.24953,-1.397664 0.6001,-0.676032 0.5393,-0.744403 3.72204,-5.096929 0.53933,-0.721612 0.45575,-0.789985 3.17893,-5.389373 0.45196,-0.770986 0.3798,-0.805171 2.62062,-5.655236 0.3798,-0.805171 0.28865,-0.831754 2.07372,-5.860311 0.29623,-0.820377 0.20131,-0.862148 1.50399,-6.01224 0.20891,-0.850752 0.12912,-0.862148 0.90772,-6.133757 0.1406,-0.869751 0.0379,-0.873542 0.32282,-6.205921 0.0494,-0.881145 -0.0342,-0.877335 -0.27725,-6.2211269 -0.0342,-0.9077282 -0.12542,-0.8849183 -0.88113,-6.1945447 -0.12543,-0.8849377 -0.2089,-0.8811264 -1.50399,-6.1451719 -0.20891,-0.8773349 -0.30384,-0.865939 -2.11549,-6.031239 -0.30384,-0.865939 -0.39119,-0.843149 -2.75735,-5.875518 -0.40258,-0.835545 -0.46336,-0.797587 -3.3954,-5.670424 -28.40524,16.996063 26.48725,-19.738207 -3.0574,-4.10185 -0.56589,-0.744403 -0.61908,-0.691238 -4.37909,-4.789278 -0.62289,-0.67224 -0.68363,-0.611491 -4.76649,-4.257553 -0.68363,-0.611472 -0.74443,-0.54312 -5.0969,-3.722035 -0.73301,-0.527933 -0.77859,-0.463354 -5.38937,-3.178915 -0.77099,-0.45577 -0.81659,-0.3684 -5.64382,-2.628211 -0.80517,-0.379815 -0.83177,-0.288633 -5.85271,-2.062321 -0.82038,-0.296236 -0.86973,-0.212698 -6.00464,-1.492618 -0.84696,-0.208886 -0.87354,-0.140593 -6.13378,-0.907728 -0.86212,-0.12912 -0.88115,-0.04939 -6.20594,-0.32282 z m -80.60877,62.4353246 -0.892522,3.5511268 -0.212697,0.8659392 -0.12912,0.8659392 -0.915312,6.1185896 -0.121536,0.8773344 -0.04939,0.8811458 -0.330423,6.1945254 -0.04939,0.881146 0.04181,0.884918 0.277258,6.224938 0.03792,0.884938 0.125231,0.884918 0.869731,6.20594 0.133009,0.896333 0.208906,0.877335 1.49641,6.133777 0.216489,0.892521 0.30384,0.865939 2.115485,6.027428 0.30384,0.869751 0.394983,0.824169 2.75735,5.875499 0.391191,0.843148 0.482352,0.797588 3.38401,5.681818 0.474749,0.786173 0.554515,0.752006 3.957524,5.298212 0.546912,0.736819 0.630451,0.687428 4.379108,4.789277 0.619075,0.691238 0.683635,0.611472 4.766486,4.257572 0.68364,0.611472 0.73303,0.527914 5.1083,3.73345 0.73301,0.527913 0.76719,0.45577 5.40456,3.171332 0.77101,0.451958 0.81277,0.39119 5.64382,2.628212 0.79759,0.364608 0.83176,0.288653 5.86031,2.073715 0.83177,0.288634 0.85075,0.212698 6.01222,1.500201 0.84696,0.212698 0.87734,0.121536 5.08553,0.75959 5.42733,-36.343059 -4.13981,-0.611472 -4.42848,-1.097636 -4.13982,-1.462224 -4.09044,-1.91039 -3.83978,-2.248417 -3.57771,-2.616816 -3.52454,-3.14856 -3.0498,-3.349825 -2.83712,-3.801802 -2.4459,-4.094247 -1.93698,-4.132224 -1.55338,-4.417066 -1.05964,-4.367713 -0.61528,-4.356297 -0.19368,-4.496833 0.23167,-4.4550629 0.66466,-4.4512516 0.65326,-2.6130242 z"
       id="path4489"
       inkscape:connector-curvature="0" />
  </g>
</svg>
